<svg xmlns="http://www.w3.org/2000/svg" viewBox="0 0 320 80" width="320" height="80" role="img" aria-label="Arbor Labs">
  <title>Arbor Labs</title>
  
  <g transform="translate(8,6) scale(0.95)">
    <g fill="none" stroke="#141416" stroke-width="3.6" stroke-linecap="round">
      <path d="M32 60V37"/>
      <path d="M32 37 15 25"/><path d="M32 37 49 25"/>
      <path d="M15 25 8 11"/><path d="M15 25 23 11"/>
      <path d="M49 25 56 11"/><path d="M49 25 41 11"/>
    </g>
    <g fill="#F26A1B">
      <circle cx="32" cy="60" r="4.4"/><circle cx="32" cy="37" r="4"/>
      <circle cx="15" cy="25" r="4"/><circle cx="49" cy="25" r="4"/>
      <circle cx="8"  cy="10.5" r="3.4"/><circle cx="23" cy="10.5" r="3.4"/>
      <circle cx="41" cy="10.5" r="3.4"/><circle cx="56" cy="10.5" r="3.4"/>
    </g>
  </g>
  <text x="84" y="37" font-family="Helvetica Neue,Helvetica,Arial,sans-serif" font-weight="700"
    font-size="25" letter-spacing="3.2" fill="#141416">ARBOR</text>
  <text x="84" y="64" font-family="Helvetica Neue,Helvetica,Arial,sans-serif" font-weight="300"
    font-size="25" letter-spacing="7.9" fill="#F26A1B">LABS</text>
</svg>